<svg xmlns="http://www.w3.org/2000/svg" viewBox="0 0 430 700" fill="none" aria-hidden="true">
  <defs>
    <linearGradient id="wash" x1="0" y1="0" x2=".9" y2="1">
      <stop stop-color="#45433f" stop-opacity=".18"/>
      <stop offset=".55" stop-color="#595650" stop-opacity=".07"/>
      <stop offset="1" stop-color="#45413c" stop-opacity="0"/>
    </linearGradient>
    <linearGradient id="river" x1="0" y1="0" x2="1" y2=".4">
      <stop stop-color="#514f4b" stop-opacity=".22"/>
      <stop offset="1" stop-color="#514f4b" stop-opacity=".04"/>
    </linearGradient>
  </defs>
  <!-- Atmospheric mountain washes: intentionally leave paper visible. -->
  <path d="M-24 192 35 121 65 146 116 72 169 158 206 121 257 183 303 129 347 169 383 109 455 181v68H-24z" fill="url(#wash)"/>
  <g stroke="#34332f" stroke-linecap="round" stroke-linejoin="round">
    <path d="m-16 183 48-58 30 23 53-76 53 85 39-36 50 63m19-18 28-36 40 40 39-61 47 72" stroke-width="2.8" opacity=".47"/>
    <path d="m80 133 34-55 18 30m-32-8 12-14m51 72 38-33 14 20m121 3 43-42 19 29" stroke-width="1.1" opacity=".4"/>
    <path d="M-15 202c76-17 143-12 209 2s150 19 251-4M0 216c80-8 133-5 187 4s145 10 244-6" stroke-width="1.8" opacity=".18"/>
  </g>
  <!-- Ink-wash river and bank: organic, not a satellite map. -->
  <path d="M268-25c-65 94-36 154-62 224-28 78-68 99-59 182 7 64 77 89 59 160-15 62-58 109-32 188" stroke="url(#river)" stroke-width="37" stroke-linecap="round"/>
  <path d="M268-25c-65 94-36 154-62 224-28 78-68 99-59 182 7 64 77 89 59 160-15 62-58 109-32 188" stroke="#3b3a36" stroke-opacity=".32" stroke-width="2.4" stroke-linecap="round"/>
  <path d="M280-20c-59 91-35 149-60 224-25 74-68 99-55 175 12 72 74 90 58 160" stroke="#56534e" stroke-opacity=".18" stroke-width="1.2" stroke-linecap="round"/>
  <!-- Distant trees, each with varied dry-brush weight. -->
  <g stroke="#34342f" stroke-linecap="round" stroke-linejoin="round" opacity=".43">
    <path d="m25 340 16-31 16 31m-13-11 10-27 14 27m-30 20 15-28 17 28m9 6 15-34 18 34m-61 20v-20m31 20v-19m-48 20v-17" stroke-width="2.5"/>
    <path d="m292 396 14-30 16 30m-8-10 16-37 20 37m-9 10 13-29 16 29m-49 13v-16m29 20v-22" stroke-width="2.3"/>
    <path d="m43 514 18-40 18 40m-11-12 18-36 16 36m-54 21 15-30 16 30m12 9 17-31 17 31m-53 13v-30m25 27v-22" stroke-width="2.8"/>
    <path d="m288 575 15-31 15 31m-6-10 15-35 17 35m-35 17v-20m31 18v-18" stroke-width="2.1"/>
  </g>
  <!-- Faint village, bridge, and road motifs leave the real interactive pins unobstructed. -->
  <g stroke="#3e3a34" stroke-linecap="round" stroke-linejoin="round" opacity=".38">
    <path d="m299 266 29-22 29 22m-52-2v29h46v-29m-34 29v-19h15v19m37-14 19-14 19 14m-35 0v21h32v-21" stroke-width="2.4"/>
    <path d="M128 440q40-17 81-4m-81 11q40-17 81-4m-70-15v23m19-28v22m20-20v20m20-15v18" stroke-width="2.1"/>
    <path d="M14 633q90-38 165-8t250 3M-12 645q88-35 163-9t278 5" stroke-width="1.6" stroke-dasharray="6 8"/>
  </g>
  <g stroke="#3e3b36" stroke-linecap="round" opacity=".15" stroke-width="1.4">
    <path d="M15 263q45-16 89-5m188 59q52-19 115-4M7 576q70-10 119 5m164 73q61-14 125-3"/>
    <path d="M33 270q27-5 55-1m220 55q38-10 77-7M25 584q45-4 85 4"/>
  </g>
</svg>
